<?xml version="1.0" standalone="no"?><!DOCTYPE svg PUBLIC "-//W3C//DTD SVG 1.1//EN" "http://www.w3.org/Graphics/SVG/1.1/DTD/svg11.dtd"><svg t="1566198367552" class="icon" viewBox="0 0 1024 1024" version="1.1" xmlns="http://www.w3.org/2000/svg" p-id="2639" xmlns:xlink="http://www.w3.org/1999/xlink" width="200" height="200"><defs><style type="text/css"></style></defs><path d="M456.861538 563.2m-433.230769 0a433.230769 433.230769 0 1 0 866.461539 0 433.230769 433.230769 0 1 0-866.461539 0Z" fill="#FFDA00" p-id="2640"></path><path d="M512 0C228.430769 0 0 228.430769 0 512s228.430769 512 512 512 512-228.430769 512-512S795.569231 0 512 0z m0 964.923077C263.876923 964.923077 59.076923 760.123077 59.076923 512S263.876923 59.076923 512 59.076923 964.923077 263.876923 964.923077 512 760.123077 964.923077 512 964.923077z" fill="#0E0F0F" p-id="2641"></path><path d="M775.876923 389.907692h-122.092308C598.646154 378.092308 590.769231 338.707692 582.892308 275.692308c-3.938462-39.384615-11.815385-98.461538-66.953846-98.461539-35.446154 0-63.015385 23.630769-82.707693 63.015385-19.692308 43.323077-23.630769 98.461538 0 149.661538H326.892308c-7.876923 0-15.753846 0-19.692308 3.938462-31.507692 3.938462-55.138462 19.692308-70.892308 43.323077-15.753846 23.630769-19.692308 51.2-15.753846 78.769231l31.507692 161.476923c7.876923 47.261538 51.2 82.707692 102.4 82.707692h417.476924c15.753846 0 31.507692-11.815385 31.507692-31.507692v-315.076923c0-11.815385-11.815385-23.630769-27.569231-23.63077z m-157.538461 315.076923H358.4c-23.630769 0-39.384615-15.753846-43.323077-35.446153l-31.507692-161.476924c-7.876923-27.569231 7.876923-51.2 31.507692-59.076923h165.415385c11.815385 0 19.692308-7.876923 27.56923-19.692307 3.938462-11.815385 3.938462-23.630769-3.938461-31.507693-31.507692-35.446154-35.446154-98.461538-19.692308-133.907692 7.876923-11.815385 15.753846-27.569231 27.569231-27.569231 3.938462 3.938462 7.876923 27.569231 7.876923 47.261539 3.938462 51.2 15.753846 129.969231 98.461539 161.476923v259.938461z m126.030769 0h-66.953846v-256h66.953846v256z" fill="#0E0F0F" p-id="2642"></path></svg>