<?xml version="1.0" standalone="no"?><!DOCTYPE svg PUBLIC "-//W3C//DTD SVG 1.1//EN" "http://www.w3.org/Graphics/SVG/1.1/DTD/svg11.dtd"><svg t="1556607768978" class="icon" style="" viewBox="0 0 1024 1024" version="1.1" xmlns="http://www.w3.org/2000/svg" p-id="6314" xmlns:xlink="http://www.w3.org/1999/xlink" width="200" height="200"><defs><style type="text/css"></style></defs><path d="M928 686.4c0-58.6-29.7-107.4-69.2-118.6v-36.9c0-101.7-44.2-192.9-114.1-256.2l0.3-0.3c-2.1-1.9-4.3-3.5-6.4-5.3-3.7-3.2-7.5-6.4-11.4-9.4-4.6-3.6-9.2-7-13.9-10.4-4-2.9-8.1-5.7-12.3-8.4-4.9-3.2-9.9-6.2-15-9.1-4.3-2.5-8.5-5-12.9-7.3-5.3-2.8-10.7-5.3-16.1-7.8-4.4-2-8.8-4.1-13.3-6-5.7-2.3-11.6-4.3-17.4-6.4-4.5-1.6-8.9-3.2-13.5-4.6-6.2-1.9-12.6-3.4-19-4.9-4.4-1.1-8.7-2.3-13.2-3.2-7.2-1.4-14.6-2.4-22-3.4-3.8-0.5-7.5-1.2-11.3-1.6-11.3-1.1-22.7-1.7-34.2-1.7-11.6 0-23 0.6-34.3 1.7-3.8 0.4-7.4 1.1-11.1 1.6-7.4 1-14.9 1.9-22.2 3.4-4.4 0.9-8.6 2.1-12.9 3.1-6.5 1.5-13 3.1-19.3 5-4.5 1.3-8.8 3-13.2 4.5-6 2.1-11.9 4.1-17.8 6.5-4.4 1.8-8.7 3.8-13 5.8-5.6 2.5-11.1 5.1-16.5 7.9-4.3 2.2-8.4 4.7-12.6 7.1-5.2 3-10.3 6-15.3 9.3-4.1 2.7-8 5.4-12 8.2-4.8 3.4-9.6 6.9-14.2 10.6-3.8 3-7.5 6.1-11.2 9.3-2.1 1.8-4.4 3.5-6.5 5.4l0.3 0.3C211.4 337.8 167.2 429 167.2 530.8v36.9c-39.4 11.2-69.1 60.1-69.1 118.6 0 58.5 29.7 107.4 69.1 118.6v2.4c0 19.1 15.5 34.6 34.6 34.6H271c19.1 0 34.6-15.5 34.6-34.6V565.1c0-19.1-15.5-34.5-34.6-34.5h-69.1c0-42 8.2-82.8 24.4-121.1 15.7-37.1 38.1-70.3 66.7-99 4.1-4.1 8.5-7.8 12.8-11.6l48.8 48.8c42.4-36.7 97.8-59 158.4-59 60.6 0 116 22.3 158.5 59.1l48.7-48.8c4.3 3.8 8.7 7.5 12.8 11.6 28.6 28.6 51.1 61.9 66.7 99 16.2 38.3 24.5 79.1 24.5 121.1H755c-19.1 0-34.5 15.4-34.5 34.5v242.2c0 19.1 15.4 34.6 34.5 34.6h69.2c19.1 0 34.5-15.5 34.5-34.6V805c39.6-11.3 69.3-60.1 69.3-118.6z" fill="#24222D" p-id="6315"></path><path d="M241 880.3c-11.8 0-21.5-9.7-21.5-21.5V514.4c0-11.8 9.7-21.5 21.5-21.5s21.5 9.7 21.5 21.5v344.4c0 11.8-9.7 21.5-21.5 21.5zM770.7 880.3c-11.8 0-21.5-9.7-21.5-21.5V514.4c0-11.8 9.7-21.5 21.5-21.5s21.5 9.7 21.5 21.5v344.4c0.1 11.8-9.6 21.5-21.5 21.5z" fill="#FF6666" p-id="6316"></path></svg>