<?xml version="1.0" standalone="no"?><!DOCTYPE svg PUBLIC "-//W3C//DTD SVG 1.1//EN" "http://www.w3.org/Graphics/SVG/1.1/DTD/svg11.dtd"><svg t="1554708536951" class="icon" style="" viewBox="0 0 1024 1024" version="1.1" xmlns="http://www.w3.org/2000/svg" p-id="6392" xmlns:xlink="http://www.w3.org/1999/xlink" width="200" height="200"><defs><style type="text/css"></style></defs><path d="M725.333333 136.533333H349.866667a34.133333 34.133333 0 0 0-34.133334 34.133334v43.349333a31.402667 31.402667 0 0 0 16.042667 28.672 34.133333 34.133333 0 0 1 0 60.757333 31.402667 31.402667 0 0 0-16.042667 28.672V443.733333a31.744 31.744 0 0 0 16.042667 28.672 34.133333 34.133333 0 0 1 18.090667 30.037334 34.133333 34.133333 0 0 1-18.090667 30.378666 31.744 31.744 0 0 0-16.042667 28.672v111.957334a31.744 31.744 0 0 0 16.042667 28.672 34.133333 34.133333 0 0 1 18.090667 30.378666 34.133333 34.133333 0 0 1-18.090667 30.037334 31.744 31.744 0 0 0-16.042667 28.672V853.333333a34.133333 34.133333 0 0 0 34.133334 34.133334h375.466666a34.133333 34.133333 0 0 0 34.133334-34.133334V170.666667a34.133333 34.133333 0 0 0-34.133334-34.133334z" fill="#FFC824" p-id="6393"></path><path d="M810.666667 0h-546.133334a102.4 102.4 0 0 0-102.4 102.4v34.133333a34.133333 34.133333 0 0 0 68.266667 0V102.4a34.133333 34.133333 0 0 1 34.133333-34.133333h546.133334a34.133333 34.133333 0 0 1 34.133333 34.133333v819.2a34.133333 34.133333 0 0 1-34.133333 34.133333h-546.133334a34.133333 34.133333 0 0 1-34.133333-34.133333v-154.624H247.466667a34.133333 34.133333 0 0 0 0-68.266667h-17.066667v-161.792H247.466667a34.133333 34.133333 0 0 0 0-68.266666h-17.066667V307.2H247.466667a34.133333 34.133333 0 0 0 0-68.266667H145.066667a34.133333 34.133333 0 0 0 0 68.266667h17.066666v161.450667H145.066667a34.133333 34.133333 0 0 0 0 68.266666h17.066666v161.792H145.066667a34.133333 34.133333 0 0 0 0 68.266667h17.066666V921.6a102.4 102.4 0 0 0 102.4 102.4h546.133334a102.4 102.4 0 0 0 102.4-102.4V102.4a102.4 102.4 0 0 0-102.4-102.4z" fill="#6B400D" p-id="6394"></path><path d="M674.133333 238.933333a34.133333 34.133333 0 0 0-34.133333-34.133333h-204.8a34.133333 34.133333 0 0 0 0 68.266667h204.8a34.133333 34.133333 0 0 0 34.133333-34.133334zM469.333333 341.333333a34.133333 34.133333 0 0 0 0 68.266667h136.533334a34.133333 34.133333 0 0 0 0-68.266667z" fill="#6B400D" p-id="6395"></path></svg>