<?xml version="1.0" standalone="no"?><!DOCTYPE svg PUBLIC "-//W3C//DTD SVG 1.1//EN" "http://www.w3.org/Graphics/SVG/1.1/DTD/svg11.dtd"><svg t="1562629897331" class="icon" viewBox="0 0 1024 1024" version="1.1" xmlns="http://www.w3.org/2000/svg" p-id="1638" xmlns:xlink="http://www.w3.org/1999/xlink" width="200" height="200"><defs><style type="text/css"></style></defs><path d="M820.1 339.4H479.5c-14.4 0-28.5-4.4-40.3-12.6L373 281.1c-13.2-9.1-28.9-14-45-14h-62.5c-27.4 0-49.9 22.4-49.9 49.9v453c0 27.4 22.4 49.9 49.9 49.9h554.6c27.4 0 49.9-22.4 49.9-49.9V389.2c-0.1-27.4-22.5-49.8-49.9-49.8zM569.5 627.3c0 6.3-5.2 11.5-11.5 11.5H453.2c-6.3 0-11.5-5.2-11.5-11.5V495.9c0-6.3 5.2-11.5 11.5-11.5s11.5 5.2 11.5 11.5v119.9H558c6.3-0.1 11.5 5.1 11.5 11.5z" fill="#53BB86" p-id="1639"></path><path d="M781.4 347.7H432.3c-15.2 0-29.9-4.6-42.4-13.2l-69.6-48.1c-13.9-9.6-30.4-14.8-47.3-14.8h-65.8c-28.9 0-52.5 23.6-52.5 52.5v318.8c0 8.4 6.8 15.1 15.1 15.1 8.4 0 15.1-6.8 15.1-15.1V354.8c0-28.9 23.6-52.5 52.5-52.5h30.5c20.2 0 39.9 6.1 56.6 17.4l63.7 43.2c14.8 10 32.2 15.4 50.1 15.4h312.8c28.9 0 52.5 23.6 52.5 52.5v340.5c0 28.9-23.6 52.5-52.5 52.5H237.4c-28.9 0-52.5-23.6-52.5-52.5v-46.9c0-8.4-6.8-15.1-15.1-15.1-8.4 0-15.1 6.8-15.1 15.1v76.4c0 28.9 23.6 52.5 52.5 52.5h574.3c28.9 0 52.5-23.6 52.5-52.5V400.1c-0.1-28.8-23.7-52.4-52.6-52.4z" fill="#333333" p-id="1640"></path><path d="M698.6 270.1l-29.4-1-17.5 23.6-8.1-28.3-27.9-9.4 24.4-16.4 0.3-29.4 23.1 18.1 28.1-8.8-10.1 27.6zM775.1 300.1l-10.1-4.7-9.5 5.7 1.3-11-8.4-7.3 10.9-2.2 4.4-10.2 5.4 9.7 11.1 1-7.6 8.2z" fill="#53BB86" p-id="1641"></path></svg>