<?xml version="1.0" standalone="no"?><!DOCTYPE svg PUBLIC "-//W3C//DTD SVG 1.1//EN" "http://www.w3.org/Graphics/SVG/1.1/DTD/svg11.dtd"><svg t="1555989740689" class="icon" style="" viewBox="0 0 1024 1024" version="1.1" xmlns="http://www.w3.org/2000/svg" p-id="11675" xmlns:xlink="http://www.w3.org/1999/xlink" width="200" height="200"><defs><style type="text/css"></style></defs><path d="M512 512m-448 0a448 448 0 1 0 896 0 448 448 0 1 0-896 0Z" fill="#F8F5EB" p-id="11676"></path><path d="M512 980A468.12 468.12 0 0 1 329.83 80.79a468.12 468.12 0 0 1 364.34 862.42A465.09 465.09 0 0 1 512 980z m0-896a428.12 428.12 0 0 0-166.59 822.37 428.12 428.12 0 0 0 333.18-788.74A425.31 425.31 0 0 0 512 84z" fill="" p-id="11677"></path><path d="M670.62 526.57c-72.64 0-131.74-59.1-131.74-131.74S598 263.08 670.62 263.08s131.74 59.1 131.74 131.75-59.1 131.74-131.74 131.74z m0-223.49a91.74 91.74 0 1 0 91.74 91.75 91.85 91.85 0 0 0-91.74-91.75zM353.38 522.23c-72.64 0-131.74-59.1-131.74-131.74s59.1-131.74 131.74-131.74 131.74 59.1 131.74 131.74S426 522.23 353.38 522.23z m0-223.49a91.74 91.74 0 1 0 91.74 91.74 91.85 91.85 0 0 0-91.74-91.74zM463 800a69.12 69.12 0 0 1-69-69 20 20 0 0 1 40 0 29 29 0 0 0 58 0 20 20 0 0 1 40 0 69.12 69.12 0 0 1-69 69z" fill="" p-id="11678"></path><path d="M561 800a69.12 69.12 0 0 1-69-69 20 20 0 0 1 40 0 29 29 0 0 0 58.09 0 20 20 0 0 1 40 0A69.12 69.12 0 0 1 561 800zM402 483.91a38 38 0 1 1 38-38 38 38 0 0 1-38 38z m0-40a2 2 0 1 0 2 2 2 2 0 0 0-2-2zM622 483.91a38 38 0 1 1 38-38 38 38 0 0 1-38 38z m0-40a2 2 0 1 0 2 2 2 2 0 0 0-2-2z" fill="" p-id="11679"></path></svg>