<?xml version="1.0" standalone="no"?><!DOCTYPE svg PUBLIC "-//W3C//DTD SVG 1.1//EN" "http://www.w3.org/Graphics/SVG/1.1/DTD/svg11.dtd"><svg t="1566866337955" class="icon" viewBox="0 0 1024 1024" version="1.1" xmlns="http://www.w3.org/2000/svg" p-id="2615" xmlns:xlink="http://www.w3.org/1999/xlink" width="200" height="200"><defs><style type="text/css"></style></defs><path d="M846.366178 667.014428c0.572643-36.076502 0.229057-77.535846-0.343585-115.444805h-2.061515c0.8017 27.257801 1.832457 70.320546 2.4051 115.444805z" fill="#FEEB00" p-id="2616"></path><path d="M491.327592 225.964881L121.972934 519.387093v234.325467c0 96.318533 107.77139 96.204004 154.155463 96.089476h141.786378V700.342244c0-6.4136 5.6119-11.681915 12.483614-11.681915H538.284308c6.871715 0 12.483615 5.268315 12.483615 11.681915V849.802036h82.804161c190.117437 0 203.860866-37.336316 209.472766-91.050219 1.832457-17.408344 2.863214-42.948216 3.321328-71.923945-0.458114-45.124259-1.6034-88.187004-2.4051-115.444805h2.061515c-0.343586-19.813444-0.687171-38.59613-1.145286-55.088245L491.327592 225.964881z" fill="#FEEB00" p-id="2617"></path><path d="M274.066883 873.738508c-24.509115 0-63.677888-0.343586-98.15099-13.857958-45.467845-17.866458-69.518846-53.942959-69.518846-104.450061v-274.868583H56.577117c-6.528129 0-12.369086-4.123029-14.659658-10.193043-2.290572-6.184543-0.458114-13.056258 4.581143-17.293815L481.249077 83.949446c5.955486-5.039257 14.659658-4.924729 20.386087 0.114529l420.66346 369.011073c4.924729 4.237557 6.642657 11.2238 4.352086 17.293815-2.290572 6.070015-8.131529 10.078515-14.659658 10.078514h-51.995973c1.832457 75.245275 4.466614 221.956381-1.374343 281.854826-2.977743 29.891958-8.704172 60.929203-42.948216 82.002461-33.098759 20.386087-89.217761 29.433844-182.100436 29.433844h-82.804161c-8.589643 0-15.690415-6.986243-15.690415-15.690415V701.487529h-101.701376v156.560564c0 4.123029-1.6034 8.131529-4.581143 11.109272-2.977743 2.977743-6.871715 4.581143-11.109272 4.581143H274.066883zM99.181747 449.181076h22.791187c8.589643 0 15.690415 6.986243 15.690415 15.690415v290.558998c0 37.565373 16.263058 62.189017 49.705402 75.359803 30.006487 11.796443 66.655631 11.681915 88.645118 11.681915h126.210491V698.395258c0-15.575886 12.598143-28.17403 28.174029-28.17403H538.284308c15.575886 0 28.17403 12.598143 28.17403 28.17403v144.076949h67.113746c84.407561 0 138.579577-8.131529 165.722849-24.738173 20.271558-12.483615 25.310815-28.746673 28.17403-58.409574 6.184543-62.76166 2.634157-226.537524 0.8017-293.994855-0.114529-4.237557 1.488871-8.360586 4.466615-11.338329 2.977743-2.977743 6.986243-4.695672 11.2238-4.695671h26.57063L491.213063 116.475562 99.181747 449.181076z" p-id="2618"></path></svg>